<svg xmlns="http://www.w3.org/2000/svg" xmlns:xlink="http://www.w3.org/1999/xlink" width="1080" zoomAndPan="magnify" viewBox="0 0 810 809.999993" height="1080" preserveAspectRatio="xMidYMid meet" version="1.0"><defs><filter x="0%" y="0%" width="100%" height="100%" id="fd2b709941"><feColorMatrix values="0 0 0 0 1 0 0 0 0 1 0 0 0 0 1 0 0 0 1 0" color-interpolation-filters="sRGB"/></filter><clipPath id="5f0e3ee838"><path d="M 81 81 L 729 81 L 729 729 L 81 729 Z M 81 81 " clip-rule="nonzero"/></clipPath><mask id="c422c3fe22"><g filter="url(#fd2b709941)"><rect x="-81" width="972" fill="#000000" y="-80.999999" height="971.999992" fill-opacity="0.75"/></g></mask><clipPath id="0492572924"><path d="M 0.824219 322 L 294 322 L 294 396 L 0.824219 396 Z M 0.824219 322 " clip-rule="nonzero"/></clipPath><clipPath id="24714cbdf5"><path d="M 222 132 L 408.074219 132 L 408.074219 426.390625 L 222 426.390625 Z M 222 132 " clip-rule="nonzero"/></clipPath><clipPath id="10ed16e924"><path d="M 75 1.140625 L 275 1.140625 L 275 311 L 75 311 Z M 75 1.140625 " clip-rule="nonzero"/></clipPath><clipPath id="f37bfebca0"><rect x="0" width="409" y="0" height="428"/></clipPath></defs><g clip-path="url(#5f0e3ee838)"><path fill="#587dff" d="M 404.953125 728.859375 C 226.324219 728.859375 80.984375 583.535156 80.984375 404.890625 C 80.984375 226.246094 226.324219 80.9375 404.953125 80.9375 C 583.582031 80.9375 728.921875 226.261719 728.921875 404.90625 C 728.921875 583.550781 583.597656 728.875 404.953125 728.875 Z M 404.953125 96.519531 C 234.917969 96.535156 96.582031 234.855469 96.582031 404.890625 C 96.582031 574.925781 234.917969 713.261719 404.953125 713.261719 C 574.988281 713.261719 713.324219 574.925781 713.324219 404.890625 C 713.324219 234.855469 574.988281 96.535156 404.953125 96.535156 Z M 404.953125 96.519531 " fill-opacity="1" fill-rule="nonzero"/></g><path fill="#67dcff" d="M 155.785156 404.890625 C 149.089844 282.171875 240.394531 170.617188 360.976562 149.167969 C 451.222656 131.308594 548.765625 166.734375 606.980469 237.898438 C 723.398438 377.15625 662.921875 592.410156 490.203125 649.148438 C 415.65625 674.074219 329.625 661.6875 265.976562 615.515625 C 245.152344 600.835938 226.558594 582.101562 211.378906 561.773438 C 211.113281 561.429688 211.191406 560.949219 211.535156 560.683594 C 211.863281 560.433594 212.347656 560.496094 212.613281 560.808594 C 227.433594 578.792969 244.964844 595.203125 264.183594 608.433594 C 316.113281 644.683594 382.132812 659.238281 444.558594 649.007812 C 582.722656 627.386719 676.414062 490.140625 646.464844 353.585938 C 629.648438 272.09375 569.027344 201.722656 490.84375 173.175781 C 363.425781 125.316406 218.867188 192.050781 172.429688 319.96875 C 162.523438 347.109375 157.515625 375.984375 157.375 404.890625 C 157.375 405.328125 157.015625 405.671875 156.59375 405.671875 C 156.171875 405.671875 155.816406 405.3125 155.816406 404.890625 Z M 155.785156 404.890625 " fill-opacity="1" fill-rule="nonzero"/><g mask="url(#c422c3fe22)"><g transform="matrix(1, 0, 0, 1, 164, 161)"><g clip-path="url(#f37bfebca0)"><g clip-path="url(#0492572924)"><path fill="#67dcff" d="M 37.632812 322.578125 L 258.375 322.578125 L 293.324219 395.851562 L 0.84375 395.851562 L 37.632812 322.578125 " fill-opacity="1" fill-rule="evenodd"/></g><g clip-path="url(#24714cbdf5)"><path fill="#587dff" d="M 379.78125 364.210938 L 408.296875 426.660156 L 321.835938 426.660156 L 222.507812 217.660156 L 265.734375 132.726562 L 379.78125 364.210938 " fill-opacity="1" fill-rule="evenodd"/></g><g clip-path="url(#10ed16e924)"><path fill="#2720ff" d="M 177.4375 279.277344 L 162.722656 310.085938 L 75.34375 310.085938 L 232.625 1.167969 L 274.933594 87.765625 L 177.4375 279.277344 " fill-opacity="1" fill-rule="evenodd"/></g></g></g></g></svg>